<svg version="1.0" xmlns="http://www.w3.org/2000/svg"
 width="16.000000pt" height="16.000000pt" viewBox="0 0 16.000000 16.000000"
 preserveAspectRatio="xMidYMid meet">

<g transform="translate(0.000000,16.000000) scale(0.100000,-0.100000)"
fill="#ffffff" stroke="none">
<path d="M4 147 c-3 -8 -4 -43 -2 -78 l3 -64 75 0 75 0 0 75 0 75 -73 3 c-55
2 -74 -1 -78 -11z m107 -32 c0 -5 -10 -12 -23 -15 -25 -6 -36 -36 -20 -52 6
-6 17 -6 32 2 18 10 21 9 18 -2 -3 -7 -19 -14 -36 -16 -26 -3 -32 1 -38 21 -3
14 -1 34 5 45 6 11 8 22 5 24 -2 3 9 5 26 4 16 -1 30 -5 31 -11z"/>
</g>
</svg>
